<?xml version="1.0" encoding="UTF-8" standalone="no"?>
<svg
   xmlns:dc="http://purl.org/dc/elements/1.1/"
   xmlns:cc="http://creativecommons.org/ns#"
   xmlns:rdf="http://www.w3.org/1999/02/22-rdf-syntax-ns#"
   xmlns:svg="http://www.w3.org/2000/svg"
   xmlns="http://www.w3.org/2000/svg"
   xmlns:sodipodi="http://sodipodi.sourceforge.net/DTD/sodipodi-0.dtd"
   xmlns:inkscape="http://www.inkscape.org/namespaces/inkscape"
   width="44.500309mm"
   height="38.27594mm"
   viewBox="0 0 44.500309 38.27594"
   version="1.1"
   id="svg8"
   inkscape:version="1.0.1 (3bc2e813f5, 2020-09-07)"
   sodipodi:docname="bikeshare_logo.svg">
  <defs
     id="defs2" />
  <sodipodi:namedview
     id="base"
     pagecolor="#ffffff"
     bordercolor="#666666"
     borderopacity="1.0"
     inkscape:pageopacity="0.0"
     inkscape:pageshadow="2"
     inkscape:zoom="2.5462395"
     inkscape:cx="164.89414"
     inkscape:cy="80.86877"
     inkscape:document-units="mm"
     inkscape:current-layer="layer1"
     inkscape:document-rotation="0"
     showgrid="false"
     inkscape:snap-global="false"
     inkscape:window-width="1920"
     inkscape:window-height="1057"
     inkscape:window-x="-8"
     inkscape:window-y="-8"
     inkscape:window-maximized="1"
     lock-margins="true"
     fit-margin-top="0.5"
     fit-margin-left="0.5"
     fit-margin-right="0.5"
     fit-margin-bottom="0.5" />
  <metadata
     id="metadata5">
    <rdf:RDF>
      <cc:Work
         rdf:about="">
        <dc:format>image/svg+xml</dc:format>
        <dc:type
           rdf:resource="http://purl.org/dc/dcmitype/StillImage" />
        <dc:title></dc:title>
      </cc:Work>
    </rdf:RDF>
  </metadata>
  <g
     inkscape:label="Layer 1"
     inkscape:groupmode="layer"
     id="layer1"
     transform="translate(-89.866328,-144.09626)">
    <path
       d="m 129.2336,159.23846 c 0.81969,1.0857 1.60414,2.27794 1.79162,3.65586 0.17872,1.20416 -0.0618,2.4299 -0.52373,3.54452 -0.68452,-0.51307 -1.33826,-1.06741 -2.07055,-1.51651 -0.34037,-2.38672 -0.69953,-4.77198 -1.03369,-7.15959 0.78376,0.22729 1.33723,0.86847 1.83635,1.47572 z"
       id="path36"
       style="fill:#f27d01;fill-opacity:0.467742;stroke-width:0.0259085" />
    <path
       d="m 101.48011,154.60128 c 0.53039,-1.25274 1.17067,-2.52822 2.27025,-3.37953 0.95347,-0.75686 2.13521,-1.1615 3.33152,-1.31868 -0.10205,0.84936 -0.25529,1.69268 -0.27807,2.5514 -1.89678,1.48812 -3.7829,2.99179 -5.68355,4.475 -0.19504,-0.79243 0.0835,-1.59236 0.35985,-2.32819 z"
       id="path30"
       style="fill:#f27d01;fill-opacity:0.467742;stroke-width:0.0259085" />
    <g
       id="g20"
       transform="matrix(0.04770523,0,0,0.04770523,100.47696,151.0574)"
       style="fill:#4d79a7;fill-opacity:1;stroke:#ffffff;stroke-width:10.481;stroke-miterlimit:4;stroke-dasharray:none;stroke-opacity:1">
      <path
         id="path2496"
         style="fill:#4d79a7;fill-opacity:1;stroke:#ffffff;stroke-width:10.481;stroke-miterlimit:4;stroke-dasharray:none;stroke-opacity:1"
         d="m 160.96,1.8812 c -31.5,0 -57.97,25.691 -57.97,57.894 v 0.84 c 0.34,8.911 2.04,14.444 4.51,17.949 l -35.901,86.156 -0.076,-0.08 -5.499,13.52 -12.144,29.25 c -24.742,-13.12 -51.063,-20.43 -79.127,-21.31 v 9.86 h -2.444 c -86.759,0 -157.19,70.37 -157.19,156.95 0,87.64 70.43,157.87 157.19,157.87 50.503,0 97.428,-23.99 127.17,-64.46 l 7.56,5.88 c 21.47,-29.03 32.23,-63.74 32.23,-99.29 0,-49.45 -22.36,-97.45 -61.255,-128.77 l 5.652,-12.83 165.51,146.18 c -1.03,3.7 -1.62,7.49 -1.76,11.69 -0.2,1.76 -0.31,3.53 -0.31,5.35 0,13.17 5.4,25.05 14.13,33.6 l -19.7,44.07 h -11.46 v 22.99 h 57.9 v -22.99 h -14.06 l 13.83,-31.08 c 2.12,0.29 4.29,0.53 6.49,0.53 22.91,0 41.92,-16.42 46.13,-38.11 l 27.42,-2.14 c 14.09,73.63 79.15,129.38 157.34,129.38 8.83,0 17.45,-0.77 25.89,-2.14 l 0.53,0.54 c 55.37,-8.85 100.64,-45.99 121.29,-95.7 0.73,-1.76 1.47,-3.56 2.14,-5.35 0.57,-1.5 1.15,-2.99 1.68,-4.5 0.03,-0.08 0.05,-0.16 0.08,-0.23 0.02,-0.08 0.05,-0.16 0.07,-0.23 4.33,-12.53 7.05,-25.78 8.1,-39.49 l 8.86,0.84 c 0.88,-4.22 0.91,-7.39 0.91,-11.61 0,-91.51 -75.35,-166.81 -167.03,-166.81 -24.11,0 -48.07,5.81 -70.42,15.66 l -40.41,-71.11 15.66,-34.672 40.63,-19.018 c 7.4,-2.464 11.46,-9.146 11.46,-15.657 0,-8.271 -5.65,-14.914 -13.21,-16.498 h -5.81 c -33.08,0 -69.32,-0.877 -104.86,-1.756 h -7.41 -4.28 c -5.81,0.879 -10.69,5.762 -10.69,12.449 0,4.927 3.36,9.146 7.41,11.609 19,9.855 37.28,18.996 56.29,27.267 l -14.06,29.786 h -139.54 -81.87 -47.97 l 14.05,-33.834 c 0.05,0.039 0.12,0.037 0.16,0.076 l 1.37,-3.818 3.06,-7.256 -0.31,-0.153 0.77,-1.986 c -13.91,-19.005 -0.64,-46.284 23.29,-46.284 2.46,0 4.87,-0.017 7.33,0.687 l 44.68,11.609 6.57,-28.183 -43.84,-11.609 -0.69,-3e-4 c -4.22,-0.7038 -9.12,-1.5275 -14.05,-1.5275 z m -53.85,150.01 h 87.84 l 0.46,0.45 h 180.02 c 0,0 -32.58,72.21 -50.41,113.5 h -25.66 v 24.98 h 14.89 c -5.18,11.88 -10.72,24.38 -16.04,36.35 -11.79,-1.54 -21.34,2.82 -31.24,9.01 L 93.98,183.4312 Z m 294.9,11.15 30.47,52.77 c -35.54,24.82 -60.2,62.81 -69.35,104.87 l 4.05,4.05 c -1.49,8.73 -2.29,17.66 -2.29,26.81 0,0.79 0.06,1.57 0.07,2.36 l -27.42,2.14 c -2.81,-6.59 -7.12,-12.38 -12.44,-17.03 l 20.85,-48.19 h 11.76 v -24.98 h -0.99 l 10.15,-23.45 z m 124.49,73.01 c 62.33,-0.41 118.54,49.8 118.54,116.86 0,30.6 -11.62,58.33 -30.63,79.13 -1.26,1.38 -2.56,2.72 -3.89,4.05 -0.75,0.72 -1.53,1.43 -2.29,2.13 -0.62,0.58 -1.21,1.2 -1.84,1.76 -1.03,0.91 -2.07,1.8 -3.13,2.67 -20.53,16.95 -46.85,27.12 -75.54,27.12 -56.29,0 -103.47,-39.16 -115.71,-91.73 l 59.04,-4.58 38.27,-2.45 c 5.1,4.23 11.64,7.56 18.33,7.56 13.2,0 24.82,-11.58 24.82,-25.66 0,-12.32 -9.12,-22.32 -21.61,-23.91 l -47.89,-84.16 c 14.42,-5.91 29.15,-8.69 43.53,-8.79 z m -554.04,0.39 c 22.348,0 43.777,5.78 62.782,18.1 l -26.35,64.38 c -6.6873,13.2 -20.81,21.5 -35.592,20.62 h -0.84 c -7.391,0 -14.054,6.67 -14.054,14.06 0,8.27 6.663,14.82 14.054,14.82 h 0.84 c 27.276,0 52.107,-16.54 63.546,-41.17 l 21.691,-53.7 c 19.709,21.47 31.315,50.35 31.315,79.21 0,65.28 -52.106,117.39 -117.39,117.39 -64.408,0 -116.47,-52.11 -116.47,-117.39 0,-64.23 52.066,-116.32 116.47,-116.32 z m 484.77,23.21 48.04,82.57 -95.17,6.49 c 1.76,-35.55 18.97,-68.47 47.13,-89.06 z" />
    </g>
    <path
       d="m 103.77139,150.27167 c 2.02917,-1.55737 4.01635,-3.16796 6.03541,-4.73816 1.21631,-0.81072 2.74129,-1.04972 4.17551,-0.89108 2.05138,0.28245 3.99088,1.12628 5.73444,2.22217 0.78457,-0.62043 1.57011,-1.24164 2.35797,-1.85989 0.58404,2.0009 0.8145,4.08246 1.0343,6.14848 0.16118,1.55599 0.25095,3.11876 0.34899,4.6798 -3.01446,-0.77596 -6.0353,-1.59645 -9.13736,-1.94848 -1.07901,-0.13993 -2.16827,-0.15507 -3.25141,-0.23741 0.85966,-0.68126 1.71698,-1.36548 2.58596,-2.03491 -1.57169,-1.0908 -3.34148,-1.93422 -5.22099,-2.32506 -1.61997,-0.28067 -3.21584,0.31635 -4.66282,0.98454 z"
       id="path28"
       style="fill:#f28e2b;fill-opacity:0.75;stroke-width:0.0259085" />
    <path
       d="m 104.07934,180.37879 c -2.36332,-0.97863 -4.751737,-1.89429 -7.12109,-2.85774 -1.310239,-0.64799 -2.27972,-1.84915 -2.859459,-3.17056 -0.781066,-1.91778 -1.020061,-4.01936 -0.942759,-6.07725 -0.929582,-0.36922 -1.860359,-0.73893 -2.789704,-1.11212 1.440805,-1.50623 3.128284,-2.74661 4.807582,-3.96996 1.266943,-0.91759 2.575445,-1.77671 3.878345,-2.64214 0.835233,2.9986 1.635075,6.02496 2.881265,8.88744 0.41831,1.00441 0.94984,1.95533 1.42012,2.93452 -1.01983,-0.40384 -2.04104,-0.80421 -3.05529,-1.22204 -0.15882,1.90652 -0.004,3.86092 0.59693,5.68404 0.56693,1.54324 1.88188,2.62677 3.18406,3.54581 z"
       id="path22-7"
       style="fill:#f28e2b;fill-opacity:0.75;stroke-width:0.0259085" />
    <path
       d="m 108.97452,180.19829 c -1.35008,0.16703 -2.77485,0.25025 -4.06188,-0.27634 -1.13219,-0.4473 -2.07352,-1.26839 -2.80779,-2.22584 0.7866,-0.33627 1.59355,-0.62526 2.34863,-1.0349 2.23714,0.8986 4.48242,1.78017 6.71722,2.6846 -0.5887,0.56514 -1.42073,0.72387 -2.19618,0.85248 z"
       id="path24"
       style="fill:#f27d01;fill-opacity:0.467742;stroke-width:0.0259085" />
    <path
       d="m 131.83747,163.38758 c 0.33414,2.53599 0.73536,5.06224 1.08566,7.59589 0.0939,1.45872 -0.46154,2.89888 -1.31606,4.06164 -1.2703,1.63533 -2.97083,2.89307 -4.79167,3.85508 0.14502,0.98965 0.29024,1.98056 0.43173,2.97201 -2.02485,-0.49464 -3.94278,-1.33585 -5.84187,-2.17849 -1.42813,-0.63842 -2.8264,-1.34205 -4.22734,-2.03766 2.17922,-2.22264 4.40021,-4.42851 6.25611,-6.93897 0.66069,-0.86447 1.21843,-1.80026 1.83131,-2.69711 0.16017,1.08511 0.32405,2.1697 0.46933,3.25698 1.7305,-0.81573 3.34583,-1.92666 4.62406,-3.35898 1.05304,-1.2626 1.33393,-2.94316 1.47874,-4.53039 z"
       id="path34"
       style="fill:#f28e2b;fill-opacity:0.75;stroke-width:0.0259085" />
  </g>
</svg>
